<?xml version="1.0" encoding="utf-8"?>
<!-- Generator: Adobe Illustrator 15.1.0, SVG Export Plug-In . SVG Version: 6.00 Build 0)  -->
<!DOCTYPE svg PUBLIC "-//W3C//DTD SVG 1.1//EN" "http://www.w3.org/Graphics/SVG/1.1/DTD/svg11.dtd">
<svg version="1.1" id="Layer_1" xmlns="http://www.w3.org/2000/svg" xmlns:xlink="http://www.w3.org/1999/xlink" x="0px" y="0px"
	 width="5px" height="5px" viewBox="0 0 5 5" enable-background="new 0 0 5 5" xml:space="preserve">
<g>
	<defs>
		<rect id="SVGID_1_" width="5" height="5"/>
	</defs>
	<clipPath id="SVGID_2_">
		<use xlink:href="#SVGID_1_"  overflow="visible"/>
	</clipPath>
	<g clip-path="url(#SVGID_2_)">
		
			<line fill="none" stroke="#9ED2F3" stroke-width="0.4292" stroke-miterlimit="10" x1="-29.757" y1="-0.271" x2="-35.123" y2="5.178"/>
		
			<line fill="none" stroke="#9ED2F3" stroke-width="0.4292" stroke-miterlimit="10" x1="-27.914" y1="-0.271" x2="-33.278" y2="5.178"/>
		
			<line fill="none" stroke="#9ED2F3" stroke-width="0.4292" stroke-miterlimit="10" x1="-26.07" y1="-0.271" x2="-31.435" y2="5.178"/>
		
			<line fill="none" stroke="#9ED2F3" stroke-width="0.4292" stroke-miterlimit="10" x1="-24.227" y1="-0.271" x2="-29.591" y2="5.178"/>
		
			<line fill="none" stroke="#9ED2F3" stroke-width="0.4292" stroke-miterlimit="10" x1="-22.382" y1="-0.271" x2="-27.748" y2="5.178"/>
		
			<line fill="none" stroke="#9ED2F3" stroke-width="0.4292" stroke-miterlimit="10" x1="-20.539" y1="-0.271" x2="-25.904" y2="5.178"/>
		
			<line fill="none" stroke="#9ED2F3" stroke-width="0.4292" stroke-miterlimit="10" x1="-18.696" y1="-0.271" x2="-24.062" y2="5.178"/>
		
			<line fill="none" stroke="#9ED2F3" stroke-width="0.4292" stroke-miterlimit="10" x1="-16.853" y1="-0.271" x2="-22.218" y2="5.178"/>
		
			<line fill="none" stroke="#9ED2F3" stroke-width="0.4292" stroke-miterlimit="10" x1="-15.009" y1="-0.271" x2="-20.373" y2="5.178"/>
		
			<line fill="none" stroke="#9ED2F3" stroke-width="0.4292" stroke-miterlimit="10" x1="-13.166" y1="-0.271" x2="-18.53" y2="5.178"/>
		
			<line fill="none" stroke="#9ED2F3" stroke-width="0.4292" stroke-miterlimit="10" x1="-11.323" y1="-0.271" x2="-16.688" y2="5.178"/>
		
			<line fill="none" stroke="#9ED2F3" stroke-width="0.4292" stroke-miterlimit="10" x1="-9.479" y1="-0.271" x2="-14.845" y2="5.178"/>
		<line fill="none" stroke="#9ED2F3" stroke-width="0.4292" stroke-miterlimit="10" x1="-7.636" y1="-0.271" x2="-13" y2="5.178"/>
		
			<line fill="none" stroke="#9ED2F3" stroke-width="0.4292" stroke-miterlimit="10" x1="-5.793" y1="-0.271" x2="-11.157" y2="5.178"/>
		
			<line fill="none" stroke="#9ED2F3" stroke-width="0.4292" stroke-miterlimit="10" x1="-3.95" y1="-0.271" x2="-9.313" y2="5.178"/>
		
			<line fill="none" stroke="#9ED2F3" stroke-width="0.4292" stroke-miterlimit="10" x1="-2.106" y1="-0.271" x2="-7.47" y2="5.178"/>
		
			<line fill="none" stroke="#9ED2F3" stroke-width="0.4292" stroke-miterlimit="10" x1="-0.264" y1="-0.271" x2="-5.627" y2="5.178"/>
		<line fill="none" stroke="#9ED2F3" stroke-width="0.4292" stroke-miterlimit="10" x1="1.58" y1="-0.271" x2="-3.784" y2="5.178"/>
		
			<line fill="none" stroke="#9ED2F3" stroke-width="0.4292" stroke-miterlimit="10" x1="3.426" y1="-0.271" x2="-1.942" y2="5.178"/>
		<line fill="none" stroke="#9ED2F3" stroke-width="0.4292" stroke-miterlimit="10" x1="5.27" y1="-0.271" x2="-0.098" y2="5.178"/>
		<line fill="none" stroke="#9ED2F3" stroke-width="0.4292" stroke-miterlimit="10" x1="7.113" y1="-0.271" x2="1.746" y2="5.178"/>
		<line fill="none" stroke="#9ED2F3" stroke-width="0.4292" stroke-miterlimit="10" x1="8.955" y1="-0.271" x2="3.592" y2="5.178"/>
		
			<line fill="none" stroke="#9ED2F3" stroke-width="0.4292" stroke-miterlimit="10" x1="10.799" y1="-0.271" x2="5.436" y2="5.178"/>
		
			<line fill="none" stroke="#9ED2F3" stroke-width="0.4292" stroke-miterlimit="10" x1="12.643" y1="-0.271" x2="7.277" y2="5.178"/>
		
			<line fill="none" stroke="#9ED2F3" stroke-width="0.4292" stroke-miterlimit="10" x1="14.484" y1="-0.271" x2="9.121" y2="5.178"/>
		
			<line fill="none" stroke="#9ED2F3" stroke-width="0.4292" stroke-miterlimit="10" x1="16.328" y1="-0.271" x2="10.965" y2="5.178"/>
		
			<line fill="none" stroke="#9ED2F3" stroke-width="0.4292" stroke-miterlimit="10" x1="18.172" y1="-0.271" x2="12.809" y2="5.178"/>
		
			<line fill="none" stroke="#9ED2F3" stroke-width="0.4292" stroke-miterlimit="10" x1="20.016" y1="-0.271" x2="14.652" y2="5.178"/>
		
			<line fill="none" stroke="#9ED2F3" stroke-width="0.4292" stroke-miterlimit="10" x1="21.859" y1="-0.271" x2="16.496" y2="5.178"/>
		
			<line fill="none" stroke="#9ED2F3" stroke-width="0.4292" stroke-miterlimit="10" x1="23.703" y1="-0.271" x2="18.336" y2="5.178"/>
		
			<line fill="none" stroke="#9ED2F3" stroke-width="0.4292" stroke-miterlimit="10" x1="25.547" y1="-0.271" x2="20.18" y2="5.178"/>
		
			<line fill="none" stroke="#9ED2F3" stroke-width="0.4292" stroke-miterlimit="10" x1="27.391" y1="-0.271" x2="22.023" y2="5.178"/>
		
			<line fill="none" stroke="#9ED2F3" stroke-width="0.4292" stroke-miterlimit="10" x1="29.232" y1="-0.271" x2="23.869" y2="5.178"/>
	</g>
</g>
</svg>
